<svg width="1512" height="982" viewBox="0 0 1512 982" fill="none" xmlns="http://www.w3.org/2000/svg">
<rect width="1512" height="982" fill="white"/>
<ellipse cx="1173" cy="523.5" rx="64" ry="60.5" fill="#F6821F"/>
<ellipse cx="1092.5" cy="497.5" rx="35.5" ry="34.5" fill="#7F7085"/>
<ellipse cx="1207" cy="469" rx="34" ry="33" fill="#E4E4E4"/>
<ellipse cx="1251.5" cy="498" rx="14.5" ry="14" fill="#F6FE99"/>
<ellipse cx="1366.5" cy="491" rx="30.5" ry="30" fill="#E4E4E4"/>
<circle cx="1296" cy="535" r="40" fill="#F6821F"/>
<circle cx="1363" cy="619" r="20" fill="#E4E4E4"/>
<ellipse cx="1217" cy="569.5" rx="10" ry="9.5" fill="#FFE3F9"/>
<ellipse cx="1050" cy="562" rx="27" ry="26" fill="#FFE091"/>
<ellipse cx="1031" cy="635.5" rx="26" ry="24.5" fill="#F6821F"/>
<ellipse cx="1006" cy="654.5" rx="16" ry="15.5" fill="#E3B94B"/>
<ellipse cx="1127.5" cy="639" rx="42.5" ry="41" fill="#E4E4E4"/>
<ellipse cx="1222" cy="639.5" rx="44" ry="40.5" fill="#F6821F"/>
<ellipse cx="1270.5" cy="610" rx="18.5" ry="20" fill="#E3B94B" fill-opacity="0.84"/>
<ellipse cx="1303.5" cy="614.5" rx="22.5" ry="21.5" fill="#7F7085"/>
<ellipse cx="1312" cy="652.5" rx="24" ry="24.5" fill="#FFE090"/>
<ellipse cx="1439.5" cy="498" rx="6.5" ry="7" fill="#7F7085"/>
<ellipse cx="1352.5" cy="577" rx="21.5" ry="22" fill="#E3B94B"/>
<ellipse cx="1424.5" cy="588" rx="35.5" ry="34" fill="#F6821F"/>
<ellipse cx="1254" cy="555.5" rx="17" ry="15.5" fill="#7F7085"/>
<ellipse cx="1405" cy="666" rx="28" ry="26" fill="#E4E4E4"/>
<ellipse cx="1463" cy="657.5" rx="17" ry="17.5" fill="#7F7085"/>
<ellipse cx="1015" cy="521.5" rx="10" ry="9.5" fill="#E3B94B"/>
</svg>
